o Tile
v -1 -1 0.1
v -1 1 0.1
v -1 -1 -0.1
v -1 1 -0.1
v 1 -1 0.1
v 1 1 0.1
v 1 -1 -0.1
v 1 1 -0.1
vn -1 -0 -0
vn -0 -0 -1
vn 1 -0 -0
vn -0 -0 1
vn -0 -1 -0
vn -0 1 -0
vt 0.9 1
vt 1 0
vt 0.9 0
vt 0 1
vt 1 0
vt 0 0
vt 0.1 1
vt 0 0
vt 0.1 0
vt 1 1
vt 0 0.9
vt 1 1
vt 1 0.9
vt 0 0.1
vt 1 0
vt 1 0.1
vt 1 1
vt 0 1
vt 0 1
vt 0 0
s 0
f 2/1/1 3/2/1 1/3/1
f 4/4/2 7/5/2 3/6/2
f 8/7/3 5/8/3 7/9/3
f 6/10/4 1/6/4 5/5/4
f 7/11/5 1/12/5 3/13/5
f 4/14/6 6/15/6 8/16/6
f 2/1/1 4/17/1 3/2/1
f 4/4/2 8/10/2 7/5/2
f 8/7/3 6/18/3 5/8/3
f 6/10/4 2/4/4 1/6/4
f 7/11/5 5/19/5 1/12/5
f 4/14/6 2/20/6 6/15/6
