o Tile
v -1 -1 -0.1
v -1 1 0.1
v -1 -1 0.1
v 1 -1 -0.1
v -1 1 -0.1
v 1 -1 0.1
v 1 1 -0.1
v 1 1 0.1
vn -1 0 0
vn 0 0 -1
vn 1 0 0
vn 0 0 1
vn 0 -1 -0
vn 0 1 0
vt 1 1
vt 1 0
vt 0.9 1
vt 0 1
vt 0 0
vt 1 1
vt 0.1 1
vt 0.1 0
vt 1 0.1
vt 0 0.1
vt 1 0.9
vt 0 0.9
vt 0.9 0
s 0
f 3/1/1 2/2/1 1/3/1
f 1/4/2 5/5/2 4/6/2
f 4/7/3 7/8/3 6/4/3
f 6/6/4 8/2/4 3/4/4
f 1/9/5 4/10/5 3/2/5
f 7/11/6 5/12/6 8/6/6
f 1/3/1 2/2/1 5/13/1
f 4/6/2 5/5/2 7/2/2
f 6/4/3 7/8/3 8/5/3
f 3/4/4 8/2/4 2/5/4
f 3/2/5 4/10/5 6/5/5
f 8/6/6 5/12/6 2/4/6